<mxfile host="app.diagrams.net" modified="2023-10-09T22:31:32.946Z" agent="Mozilla/5.0 (Windows NT 10.0; Win64; x64) AppleWebKit/537.36 (KHTML, like Gecko) Chrome/116.0.0.0 Safari/537.36" etag="THj5SuFrZZUEp4LiuCvA" version="22.0.4" type="device">
  <diagram name="Page-1" id="lYSQad0eKuHBf2jrNoOt">
    <mxGraphModel dx="1050" dy="579" grid="1" gridSize="10" guides="1" tooltips="1" connect="1" arrows="1" fold="1" page="1" pageScale="1" pageWidth="850" pageHeight="1100" math="0" shadow="0">
      <root>
        <mxCell id="0" />
        <mxCell id="1" parent="0" />
        <mxCell id="dZM7jEZY3PD7IncP_Hjs-1" value="Usuario" style="swimlane;fontStyle=1;align=center;verticalAlign=top;childLayout=stackLayout;horizontal=1;startSize=26;horizontalStack=0;resizeParent=1;resizeParentMax=0;resizeLast=0;collapsible=1;marginBottom=0;whiteSpace=wrap;html=1;" vertex="1" parent="1">
          <mxGeometry x="60" y="570" width="160" height="350" as="geometry" />
        </mxCell>
        <mxCell id="dZM7jEZY3PD7IncP_Hjs-2" value="&amp;lt;Atributos&amp;gt;&lt;br&gt;- ID: int&lt;br&gt;- logo:imagen&lt;br&gt;- razonSocial:string&lt;br&gt;- direccion:string&lt;br&gt;- cuit: int&lt;br&gt;- mail:int&lt;br&gt;- password:string&lt;br&gt;- listaProductos:Producto" style="text;strokeColor=none;fillColor=none;align=left;verticalAlign=top;spacingLeft=4;spacingRight=4;overflow=hidden;rotatable=0;points=[[0,0.5],[1,0.5]];portConstraint=eastwest;whiteSpace=wrap;html=1;" vertex="1" parent="dZM7jEZY3PD7IncP_Hjs-1">
          <mxGeometry y="26" width="160" height="164" as="geometry" />
        </mxCell>
        <mxCell id="dZM7jEZY3PD7IncP_Hjs-3" value="" style="line;strokeWidth=1;fillColor=none;align=left;verticalAlign=middle;spacingTop=-1;spacingLeft=3;spacingRight=3;rotatable=0;labelPosition=right;points=[];portConstraint=eastwest;strokeColor=inherit;" vertex="1" parent="dZM7jEZY3PD7IncP_Hjs-1">
          <mxGeometry y="190" width="160" height="8" as="geometry" />
        </mxCell>
        <mxCell id="dZM7jEZY3PD7IncP_Hjs-4" value="+ iniciarSesion(usuario, contrasenia)&lt;br&gt;+ cerrarSesion()&lt;br&gt;+ modificarPerfil()&lt;br&gt;" style="text;strokeColor=none;fillColor=none;align=left;verticalAlign=top;spacingLeft=4;spacingRight=4;overflow=hidden;rotatable=0;points=[[0,0.5],[1,0.5]];portConstraint=eastwest;whiteSpace=wrap;html=1;" vertex="1" parent="dZM7jEZY3PD7IncP_Hjs-1">
          <mxGeometry y="198" width="160" height="152" as="geometry" />
        </mxCell>
        <mxCell id="dZM7jEZY3PD7IncP_Hjs-5" value="Cliente" style="swimlane;fontStyle=1;align=center;verticalAlign=top;childLayout=stackLayout;horizontal=1;startSize=26;horizontalStack=0;resizeParent=1;resizeParentMax=0;resizeLast=0;collapsible=1;marginBottom=0;whiteSpace=wrap;html=1;" vertex="1" parent="1">
          <mxGeometry x="240" y="570" width="160" height="310" as="geometry" />
        </mxCell>
        <mxCell id="dZM7jEZY3PD7IncP_Hjs-6" value="- ID:int&lt;br&gt;- nombre: string&lt;br&gt;- apellido: string&lt;br&gt;- dni:string&lt;br&gt;- mail:string&lt;br&gt;- tarjetaCredito:string&lt;br&gt;- sexo: string" style="text;strokeColor=none;fillColor=none;align=left;verticalAlign=top;spacingLeft=4;spacingRight=4;overflow=hidden;rotatable=0;points=[[0,0.5],[1,0.5]];portConstraint=eastwest;whiteSpace=wrap;html=1;" vertex="1" parent="dZM7jEZY3PD7IncP_Hjs-5">
          <mxGeometry y="26" width="160" height="114" as="geometry" />
        </mxCell>
        <mxCell id="dZM7jEZY3PD7IncP_Hjs-7" value="" style="line;strokeWidth=1;fillColor=none;align=left;verticalAlign=middle;spacingTop=-1;spacingLeft=3;spacingRight=3;rotatable=0;labelPosition=right;points=[];portConstraint=eastwest;strokeColor=inherit;" vertex="1" parent="dZM7jEZY3PD7IncP_Hjs-5">
          <mxGeometry y="140" width="160" height="30" as="geometry" />
        </mxCell>
        <mxCell id="dZM7jEZY3PD7IncP_Hjs-8" value="+ realizarPedido ()&lt;br&gt;+ consultarHistorial()&lt;br&gt;+ actualizarInfo()" style="text;strokeColor=none;fillColor=none;align=left;verticalAlign=top;spacingLeft=4;spacingRight=4;overflow=hidden;rotatable=0;points=[[0,0.5],[1,0.5]];portConstraint=eastwest;whiteSpace=wrap;html=1;" vertex="1" parent="dZM7jEZY3PD7IncP_Hjs-5">
          <mxGeometry y="170" width="160" height="140" as="geometry" />
        </mxCell>
        <mxCell id="dZM7jEZY3PD7IncP_Hjs-9" value="Producto" style="swimlane;fontStyle=1;align=center;verticalAlign=top;childLayout=stackLayout;horizontal=1;startSize=26;horizontalStack=0;resizeParent=1;resizeParentMax=0;resizeLast=0;collapsible=1;marginBottom=0;whiteSpace=wrap;html=1;" vertex="1" parent="1">
          <mxGeometry x="420" y="570" width="160" height="310" as="geometry" />
        </mxCell>
        <mxCell id="dZM7jEZY3PD7IncP_Hjs-10" value="- ID: int&lt;br&gt;- nombre:string&lt;br&gt;- descripcion:string&lt;br&gt;- precio:int&lt;br&gt;- stock: int" style="text;strokeColor=none;fillColor=none;align=left;verticalAlign=top;spacingLeft=4;spacingRight=4;overflow=hidden;rotatable=0;points=[[0,0.5],[1,0.5]];portConstraint=eastwest;whiteSpace=wrap;html=1;" vertex="1" parent="dZM7jEZY3PD7IncP_Hjs-9">
          <mxGeometry y="26" width="160" height="114" as="geometry" />
        </mxCell>
        <mxCell id="dZM7jEZY3PD7IncP_Hjs-11" value="" style="line;strokeWidth=1;fillColor=none;align=left;verticalAlign=middle;spacingTop=-1;spacingLeft=3;spacingRight=3;rotatable=0;labelPosition=right;points=[];portConstraint=eastwest;strokeColor=inherit;" vertex="1" parent="dZM7jEZY3PD7IncP_Hjs-9">
          <mxGeometry y="140" width="160" height="40" as="geometry" />
        </mxCell>
        <mxCell id="dZM7jEZY3PD7IncP_Hjs-12" value="+ crearProducto()&lt;br&gt;+ eliminarProducto()&lt;br&gt;+ modificarProducto()" style="text;strokeColor=none;fillColor=none;align=left;verticalAlign=top;spacingLeft=4;spacingRight=4;overflow=hidden;rotatable=0;points=[[0,0.5],[1,0.5]];portConstraint=eastwest;whiteSpace=wrap;html=1;" vertex="1" parent="dZM7jEZY3PD7IncP_Hjs-9">
          <mxGeometry y="180" width="160" height="130" as="geometry" />
        </mxCell>
        <mxCell id="dZM7jEZY3PD7IncP_Hjs-13" value="Servicio" style="swimlane;fontStyle=1;align=center;verticalAlign=top;childLayout=stackLayout;horizontal=1;startSize=26;horizontalStack=0;resizeParent=1;resizeParentMax=0;resizeLast=0;collapsible=1;marginBottom=0;whiteSpace=wrap;html=1;" vertex="1" parent="1">
          <mxGeometry x="610" y="570" width="160" height="308" as="geometry" />
        </mxCell>
        <mxCell id="dZM7jEZY3PD7IncP_Hjs-14" value="- ID: int&lt;br&gt;- nombre: string&lt;br&gt;- descripcion: string&lt;br&gt;- precio: int" style="text;strokeColor=none;fillColor=none;align=left;verticalAlign=top;spacingLeft=4;spacingRight=4;overflow=hidden;rotatable=0;points=[[0,0.5],[1,0.5]];portConstraint=eastwest;whiteSpace=wrap;html=1;" vertex="1" parent="dZM7jEZY3PD7IncP_Hjs-13">
          <mxGeometry y="26" width="160" height="134" as="geometry" />
        </mxCell>
        <mxCell id="dZM7jEZY3PD7IncP_Hjs-15" value="" style="line;strokeWidth=1;fillColor=none;align=left;verticalAlign=middle;spacingTop=-1;spacingLeft=3;spacingRight=3;rotatable=0;labelPosition=right;points=[];portConstraint=eastwest;strokeColor=inherit;" vertex="1" parent="dZM7jEZY3PD7IncP_Hjs-13">
          <mxGeometry y="160" width="160" height="8" as="geometry" />
        </mxCell>
        <mxCell id="dZM7jEZY3PD7IncP_Hjs-16" value="+ method(type): type" style="text;strokeColor=none;fillColor=none;align=left;verticalAlign=top;spacingLeft=4;spacingRight=4;overflow=hidden;rotatable=0;points=[[0,0.5],[1,0.5]];portConstraint=eastwest;whiteSpace=wrap;html=1;" vertex="1" parent="dZM7jEZY3PD7IncP_Hjs-13">
          <mxGeometry y="168" width="160" height="140" as="geometry" />
        </mxCell>
        <mxCell id="dZM7jEZY3PD7IncP_Hjs-17" value="Factura" style="swimlane;fontStyle=1;align=center;verticalAlign=top;childLayout=stackLayout;horizontal=1;startSize=26;horizontalStack=0;resizeParent=1;resizeParentMax=0;resizeLast=0;collapsible=1;marginBottom=0;whiteSpace=wrap;html=1;" vertex="1" parent="1">
          <mxGeometry x="800" y="570" width="160" height="310" as="geometry" />
        </mxCell>
        <mxCell id="dZM7jEZY3PD7IncP_Hjs-18" value="- ID: string&lt;br&gt;- fecha: string&lt;br&gt;- vendedor: Usuario&lt;br&gt;- comprador: Cliente&lt;br&gt;- listaProductos&lt;br&gt;- listaServicios&lt;br&gt;- Total" style="text;strokeColor=none;fillColor=none;align=left;verticalAlign=top;spacingLeft=4;spacingRight=4;overflow=hidden;rotatable=0;points=[[0,0.5],[1,0.5]];portConstraint=eastwest;whiteSpace=wrap;html=1;" vertex="1" parent="dZM7jEZY3PD7IncP_Hjs-17">
          <mxGeometry y="26" width="160" height="134" as="geometry" />
        </mxCell>
        <mxCell id="dZM7jEZY3PD7IncP_Hjs-19" value="" style="line;strokeWidth=1;fillColor=none;align=left;verticalAlign=middle;spacingTop=-1;spacingLeft=3;spacingRight=3;rotatable=0;labelPosition=right;points=[];portConstraint=eastwest;strokeColor=inherit;" vertex="1" parent="dZM7jEZY3PD7IncP_Hjs-17">
          <mxGeometry y="160" width="160" height="8" as="geometry" />
        </mxCell>
        <mxCell id="dZM7jEZY3PD7IncP_Hjs-20" value="+ generarFactura()&lt;br&gt;+ calculaTotal&lt;br&gt;+ enviarFactura&lt;br&gt;+ consultaHistorial" style="text;strokeColor=none;fillColor=none;align=left;verticalAlign=top;spacingLeft=4;spacingRight=4;overflow=hidden;rotatable=0;points=[[0,0.5],[1,0.5]];portConstraint=eastwest;whiteSpace=wrap;html=1;" vertex="1" parent="dZM7jEZY3PD7IncP_Hjs-17">
          <mxGeometry y="168" width="160" height="142" as="geometry" />
        </mxCell>
      </root>
    </mxGraphModel>
  </diagram>
</mxfile>
